# xmcd
#
# Track frame offsets:
#	150
#	13470
#	23285
#	38795
#	49730
#	67372
#	81912
#	96577
#	103805
#	117187
#	132747
#	140655
#	154760
#	170975
#	186970
#	199252
#
# Disc length: 2821 seconds
#
# Revision: 3
# Processed by: cddbd v1.5.2PL0 Copyright (c) Steve Scherf et al.
# Submitted via: audiograbber 1.83.01
#
DISCID=f70b0310
DTITLE=Peter, Paul and Mary - Lemon Trees and Other Great Songs
DYEAR=1900
DGENRE=Pop
TTITLE0=Lemon Tree
TTITLE1=If I Had A Hammer
TTITLE2=Puff  (The Magic Dragon)
TTITLE3=This Land Is Your Land
TTITLE4=Where Have All The Flowers Gone
TTITLE5=Don't Thing Twice
TTITLE6=A 'Soalin'
TTITLE7=Early In The Morning
TTITLE8=Blowin' In The Wind
TTITLE9=Cruel War
TTITLE10=Settle Down (Goin' Down That Highway)
TTITLE11=Flora
TTITLE12=Morning Train
TTITLE13=Tiny Sparrow
TTITLE14=Big Boat
TTITLE15=500 Miles
EXTD=ID3G: 2
EXTT0=
EXTT1=
EXTT2=
EXTT3=
EXTT4=
EXTT5=
EXTT6=
EXTT7=
EXTT8=
EXTT9=
EXTT10=
EXTT11=
EXTT12=
EXTT13=
EXTT14=
EXTT15=
PLAYORDER=
